<svg width="16" height="13" viewBox="0 0 16 13" fill="none" xmlns="http://www.w3.org/2000/svg">
<path d="M1.2973 5.2C0.579459 5.2 0 5.78067 0 6.5C0 7.21933 0.579459 7.8 1.2973 7.8C2.01514 7.8 2.59459 7.21933 2.59459 6.5C2.59459 5.78067 2.01514 5.2 1.2973 5.2ZM1.2973 0C0.579459 0 0 0.580667 0 1.3C0 2.01933 0.579459 2.6 1.2973 2.6C2.01514 2.6 2.59459 2.01933 2.59459 1.3C2.59459 0.580667 2.01514 0 1.2973 0ZM1.2973 10.4C0.579459 10.4 0 10.9893 0 11.7C0 12.4107 0.588108 13 1.2973 13C2.00649 13 2.59459 12.4107 2.59459 11.7C2.59459 10.9893 2.01514 10.4 1.2973 10.4ZM3.89189 12.5667H16V10.8333H3.89189V12.5667ZM3.89189 7.36667H16V5.63333H3.89189V7.36667ZM3.89189 0.433333V2.16667H16V0.433333H3.89189Z" fill="#4CAF50"/>
</svg>
