<svg width="37" height="36" viewBox="0 0 37 36" fill="none" xmlns="http://www.w3.org/2000/svg">
<path d="M27.2061 1H6.29379V9.37482M27.2061 1V5.72357H31.2536M27.2061 1L31.2536 5.72357M31.2536 5.72357V14.3997M28.2097 35.0576L6.29379 35.1551V17.9146M26.6139 26.6828H24.8153C24.4054 26.6828 24.1697 27.149 24.4127 27.4791L29.9986 35.0688C30.1984 35.3403 30.6042 35.3403 30.804 35.0688L36.3899 27.4791C36.6329 27.149 36.3972 26.6828 35.9872 26.6828H34.1887C33.9125 26.6828 33.6887 26.4589 33.6887 26.1828V16.0163C33.6887 15.7402 33.4648 15.5163 33.1887 15.5163H27.6139C27.3378 15.5163 27.1139 15.7402 27.1139 16.0163V26.1828C27.1139 26.4589 26.8901 26.6828 26.6139 26.6828Z" stroke="#4CAF50"/>
<path d="M1 10.154H11.566C11.8422 10.154 12.066 10.3778 12.066 10.654V16.5557C12.066 16.8319 11.8422 17.0557 11.566 17.0557H1C0.723858 17.0557 0.5 16.8319 0.5 16.5557V10.654C0.5 10.3778 0.723858 10.154 1 10.154Z" stroke="#4CAF50"/>
<path d="M3.06064 15.1566V11.6409H4.14473C4.30951 11.6409 4.45839 11.6886 4.59138 11.784C4.7258 11.8794 4.83204 12.0075 4.9101 12.1682C4.98815 12.3289 5.02718 12.5056 5.02718 12.6981C5.02718 12.8956 4.98671 13.0748 4.90576 13.2355C4.82626 13.3945 4.7193 13.5218 4.58487 13.6172C4.45044 13.711 4.30373 13.7578 4.14473 13.7578H3.58967V15.1566H3.06064ZM3.58967 13.1451H4.08836C4.16352 13.1451 4.23218 13.1233 4.29433 13.0798C4.35649 13.0363 4.40563 12.9777 4.44177 12.904C4.47935 12.8304 4.49814 12.7483 4.49814 12.6579C4.49814 12.5658 4.47935 12.483 4.44177 12.4093C4.40563 12.3356 4.35649 12.277 4.29433 12.2335C4.23218 12.19 4.16352 12.1682 4.08836 12.1682H3.58967V13.1451Z" fill="#4CAF50"/>
<path d="M5.42362 15.1566V11.6409H6.42965C6.63925 11.6409 6.83511 11.6869 7.01723 11.779C7.20081 11.8694 7.36197 11.9958 7.50074 12.1582C7.64095 12.3189 7.75008 12.5056 7.82813 12.7182C7.90763 12.9291 7.94738 13.156 7.94738 13.3987C7.94738 13.6415 7.90763 13.8692 7.82813 14.0818C7.75008 14.2927 7.64095 14.4794 7.50074 14.6418C7.36197 14.8025 7.20081 14.9289 7.01723 15.021C6.83511 15.1114 6.63925 15.1566 6.42965 15.1566H5.42362ZM5.95265 14.5439H6.42965C6.56408 14.5439 6.69056 14.5146 6.80909 14.456C6.92906 14.3957 7.03458 14.3137 7.12564 14.2099C7.21671 14.1044 7.28826 13.983 7.34029 13.8457C7.39233 13.7068 7.41835 13.5578 7.41835 13.3987C7.41835 13.2397 7.39233 13.0915 7.34029 12.9542C7.28826 12.817 7.21671 12.6956 7.12564 12.5901C7.03458 12.4846 6.92978 12.4026 6.81126 12.344C6.69273 12.2837 6.56553 12.2536 6.42965 12.2536H5.95265V14.5439Z" fill="#4CAF50"/>
<path d="M8.299 15.1566V11.6409H10.0921V12.2536H8.82804V12.9668H9.88394V13.5795H8.82804V15.1566H8.299Z" fill="#4CAF50"/>
</svg>
