<svg width="10" height="12" viewBox="0 0 10 12" fill="none" xmlns="http://www.w3.org/2000/svg">
<path d="M4.6425 11.195C4.0675 11.195 3.515 11.105 2.985 10.925C2.455 10.745 1.9925 10.4875 1.5975 10.1525C1.2025 9.81252 0.92 9.41001 0.75 8.94501L2.2125 8.39752C2.2975 8.63752 2.46 8.85251 2.7 9.04251C2.945 9.22751 3.235 9.37252 3.57 9.47752C3.91 9.58252 4.2675 9.63502 4.6425 9.63502C5.0425 9.63502 5.4175 9.57001 5.7675 9.44001C6.1225 9.31001 6.4075 9.13001 6.6225 8.90001C6.8425 8.67001 6.9525 8.40002 6.9525 8.09002C6.9525 7.77002 6.8375 7.50752 6.6075 7.30252C6.3825 7.09751 6.0925 6.93501 5.7375 6.81501C5.3875 6.69501 5.0225 6.60502 4.6425 6.54502C3.9075 6.42502 3.2475 6.25001 2.6625 6.02001C2.0825 5.79001 1.6225 5.46752 1.2825 5.05252C0.9475 4.63752 0.78 4.09751 0.78 3.43251C0.78 2.80751 0.9575 2.26251 1.3125 1.79751C1.6725 1.33251 2.145 0.972515 2.73 0.717515C3.32 0.457515 3.9575 0.327515 4.6425 0.327515C5.2075 0.327515 5.7525 0.417515 6.2775 0.597515C6.8075 0.772514 7.2725 1.03001 7.6725 1.37002C8.0775 1.70502 8.3675 2.11252 8.5425 2.59251L7.065 3.12501C6.98 2.88001 6.8175 2.66751 6.5775 2.48751C6.3375 2.30251 6.0475 2.15751 5.7075 2.05251C5.3725 1.94751 5.0175 1.89501 4.6425 1.89501C4.2425 1.89001 3.8675 1.95501 3.5175 2.09001C3.1725 2.22001 2.89 2.40001 2.67 2.63001C2.45 2.86001 2.34 3.12751 2.34 3.43251C2.34 3.80751 2.4425 4.09252 2.6475 4.28752C2.8525 4.48252 3.1275 4.62751 3.4725 4.72252C3.8225 4.81251 4.2125 4.89501 4.6425 4.97002C5.3325 5.08001 5.97 5.26251 6.555 5.51752C7.145 5.77252 7.6175 6.11251 7.9725 6.53751C8.3325 6.95751 8.5125 7.47502 8.5125 8.09002C8.5125 8.71002 8.3325 9.25502 7.9725 9.72502C7.6175 10.19 7.145 10.5525 6.555 10.8125C5.97 11.0675 5.3325 11.195 4.6425 11.195Z" fill="#4CAF50"/>
<path d="M0 6.50002H9.2925V6.87502H0V6.50002Z" fill="#4CAF50"/>
</svg>
