<svg width="34" height="39" viewBox="0 0 34 39" fill="none" xmlns="http://www.w3.org/2000/svg">
<path d="M20.8565 31.9744C20.7194 28.4732 23.5424 25.78 27.0247 25.78C30.507 25.78 33.33 28.5533 33.33 31.9744C33.33 35.3955 30.507 38.1688 27.0247 38.1688C27.0247 38.1688 24.2785 38.3034 22.3595 35.7449M20.8565 31.9744L19.1501 30.8486M20.8565 31.9744L22.5533 30.8486" stroke="#4CAF50" stroke-linecap="round" stroke-linejoin="round"/>
<path d="M26.6087 28.7425V31.9743L29.076 32.917" stroke="#4CAF50" stroke-linecap="round"/>
<path d="M22.6487 5.7647V1L26.8388 5.7647H22.6487Z" fill="#4CAF50"/>
<path d="M22.6487 1H1V35.4524H20.8518M22.6487 1V5.7647H26.8388M22.6487 1L26.8388 5.7647M26.8388 5.7647V24.6536" stroke="#4CAF50"/>
<path d="M6.67194 31.0858C7.79924 30.2583 8.95335 28.1383 8.53198 26.334C8.0247 24.1617 6.25984 29.0789 8.94071 29.079C9.5079 29.079 9.276 30.341 8.87018 31.0858C8.36289 32.0168 9.71565 29.9027 10.2229 29.9027C10.7451 29.9027 10.8185 31.7404 10.1949 31.4543C9.51853 31.1439 12.6221 30.2129 11.7767 29.9027C11.1003 29.9026 11.2416 31.225 11.7767 31.2991C12.1966 31.3573 14.0454 30.8486 14.0454 31.4543" stroke="#4CAF50" stroke-width="0.5" stroke-linecap="round"/>
<path d="M4.40314 5.76465H9.5709M4.40314 8.32138H9.5709M8.37349 13.9532H19.7173M4.97033 16.7691H21.9861M4.97033 19.585H21.9861M4.97033 22.4009H15.747" stroke="#4CAF50" stroke-linecap="round"/>
</svg>
