<svg width="35" height="37" viewBox="0 0 35 37" fill="none" xmlns="http://www.w3.org/2000/svg">
<path d="M22.1133 5.83213V1L26.1997 5.83213H22.1133Z" fill="#4CAF50"/>
<path d="M22.1133 1H1V35.94H17.0418M22.1133 1V5.83213H26.1997M22.1133 1L26.1997 5.83213M26.1997 5.83213V14.1365" stroke="#4CAF50"/>
<path d="M18.4262 30.1354L28.1141 13.6031L31.9003 15.9684L22.2124 32.5007L18.3817 34.6245L18.4262 30.1354Z" fill="#4CAF50"/>
<path d="M33.0835 14.1365L29.2114 11.8518L29.8567 10.5193C30.1072 10.002 30.7325 9.81199 31.2261 10.1032L33.3744 11.3708C33.8317 11.6406 34.0081 12.2273 33.776 12.7066L33.0835 14.1365Z" fill="#4CAF50"/>
<path d="M18.4262 30.1354L28.1141 13.6031L31.9003 15.9684L22.2124 32.5007L18.3817 34.6245L18.4262 30.1354Z" stroke="#4CAF50"/>
<path d="M33.0835 14.1365L29.2114 11.8518L29.8567 10.5193C30.1072 10.002 30.7325 9.81199 31.2261 10.1032L33.3744 11.3708C33.8317 11.6406 34.0081 12.2273 33.776 12.7066L33.0835 14.1365Z" stroke="#4CAF50"/>
<path d="M7.64264 18.7051C7.50896 15.1544 10.2621 12.4231 13.6583 12.4231C17.0544 12.4231 19.8076 15.2357 19.8076 18.7051C19.8076 22.1746 17.0544 24.9872 13.6583 24.9872C13.6583 24.9872 10.98 25.1238 9.10846 22.529M7.64264 18.7051L5.97848 17.5635M7.64264 18.7051L9.29746 17.5635" stroke="#4CAF50" stroke-linecap="round" stroke-linejoin="round"/>
<path d="M13.2526 15.4275V18.7051L15.6588 19.661" stroke="#4CAF50" stroke-linecap="round"/>
</svg>
