<svg width="37" height="36" viewBox="0 0 37 36" fill="none" xmlns="http://www.w3.org/2000/svg">
<path d="M27.2826 5.72413V1L31.3001 5.72413H27.2826Z" fill="#4CAF50"/>
<path d="M33.2171 15.5181H27.6912C27.415 15.5181 27.1912 15.7419 27.1912 16.0181V26.1858C27.1912 26.4619 26.9673 26.6858 26.6912 26.6858H24.9126C24.5035 26.6858 24.2676 27.1504 24.5089 27.4807L30.0504 35.0672C30.2501 35.3407 30.6581 35.3407 30.8579 35.0672L36.3994 27.4807C36.6407 27.1504 36.4047 26.6858 35.9956 26.6858H34.2171C33.9409 26.6858 33.7171 26.462 33.7171 26.1858V16.0181C33.7171 15.7419 33.4932 15.5181 33.2171 15.5181Z" fill="#4CAF50"/>
<path d="M27.2826 1H6.52588V9.37581M27.2826 1V5.72413H31.3001M27.2826 1L31.3001 5.72413M31.3001 5.72413V14.4013M28.2788 35.0616L6.52588 35.1591V18.31M26.6912 26.6858H24.9126C24.5035 26.6858 24.2676 27.1504 24.5089 27.4807L30.0504 35.0672C30.2501 35.3407 30.6581 35.3407 30.8579 35.0672L36.3994 27.4807C36.6407 27.1504 36.4047 26.6858 35.9956 26.6858H34.2171C33.9409 26.6858 33.7171 26.4619 33.7171 26.1858V16.0181C33.7171 15.7419 33.4932 15.5181 33.2171 15.5181H27.6912C27.415 15.5181 27.1912 15.7419 27.1912 16.0181V26.1858C27.1912 26.4619 26.9673 26.6858 26.6912 26.6858Z" stroke="#4CAF50"/>
<path fill-rule="evenodd" clip-rule="evenodd" d="M1 9.9342C0.447715 9.9342 0 10.3819 0 10.9342V16.7516C0 17.3039 0.447716 17.7516 1 17.7516H12.4701C13.0224 17.7516 13.4701 17.3039 13.4701 16.7516V10.9342C13.4701 10.3819 13.0224 9.9342 12.4701 9.9342H1ZM2.4753 11.4342V14.9342H3.0853V13.5417H3.7253C3.90864 13.5417 4.0778 13.495 4.2328 13.4017C4.3878 13.3067 4.51114 13.18 4.6028 13.0217C4.69614 12.8617 4.7428 12.6834 4.7428 12.4867C4.7428 12.295 4.6978 12.1192 4.6078 11.9592C4.5178 11.7992 4.3953 11.6717 4.2403 11.5767C4.08697 11.4817 3.9153 11.4342 3.7253 11.4342H2.4753ZM3.6603 12.9317H3.0853V11.9592H3.6603C3.74697 11.9592 3.82614 11.9809 3.8978 12.0242C3.96947 12.0675 4.02614 12.1259 4.0678 12.1992C4.11114 12.2725 4.1328 12.355 4.1328 12.4467C4.1328 12.5367 4.11114 12.6184 4.0678 12.6917C4.02614 12.765 3.96947 12.8234 3.8978 12.8667C3.82614 12.91 3.74697 12.9317 3.6603 12.9317ZM5.19991 11.4342V14.9342H6.35991C6.60158 14.9342 6.82741 14.8892 7.03741 14.7992C7.24908 14.7075 7.43491 14.5817 7.59491 14.4217C7.75658 14.26 7.88241 14.0742 7.97241 13.8642C8.06408 13.6525 8.10991 13.4259 8.10991 13.1842C8.10991 12.9425 8.06408 12.7167 7.97241 12.5067C7.88241 12.295 7.75658 12.1092 7.59491 11.9492C7.43491 11.7875 7.24908 11.6617 7.03741 11.5717C6.82741 11.48 6.60158 11.4342 6.35991 11.4342H5.19991ZM6.35991 14.3242H5.80991V12.0442H6.35991C6.51658 12.0442 6.66325 12.0742 6.79991 12.1342C6.93658 12.1925 7.05741 12.2742 7.16241 12.3792C7.26741 12.4842 7.34991 12.605 7.40991 12.7417C7.46991 12.8784 7.49991 13.0259 7.49991 13.1842C7.49991 13.3425 7.46991 13.4909 7.40991 13.6292C7.34991 13.7659 7.26741 13.8867 7.16241 13.9917C7.05741 14.095 6.93575 14.1767 6.79741 14.2367C6.66075 14.295 6.51491 14.3242 6.35991 14.3242ZM10.5828 11.4342H8.51534V14.9342H9.12534V13.3642H10.3428V12.7542H9.12534V12.0442H10.5828V11.4342Z" fill="#4CAF50"/>
</svg>
