<svg width="38" height="38" viewBox="0 0 38 38" fill="none" xmlns="http://www.w3.org/2000/svg">
<path d="M23.185 5.91096V1L27.4789 5.91096H23.185Z" fill="#4CAF50"/>
<path d="M23.185 1H1V36.51H27.4789V25.3797M23.185 1V5.91096H27.4789M23.185 1L27.4789 5.91096M27.4789 5.91096V16.3415" stroke="#4CAF50"/>
<path d="M20.5973 27.8084L30.777 11.0063L34.7554 13.4102L24.5757 30.2123L20.5506 32.3707L20.5973 27.8084Z" fill="#4CAF50"/>
<path d="M35.9987 11.5484L31.93 9.2265L32.6193 7.84988C32.8763 7.33656 33.5121 7.14409 34.0107 7.42866L36.3396 8.75776C36.8006 9.02081 36.9753 9.59786 36.7378 10.0724L35.9987 11.5484Z" fill="#4CAF50"/>
<path d="M20.5973 27.8084L30.777 11.0063L34.7554 13.4102L24.5757 30.2123L20.5506 32.3707L20.5973 27.8084Z" stroke="#4CAF50"/>
<path d="M35.9987 11.5484L31.93 9.2265L32.6193 7.84988C32.8763 7.33656 33.5121 7.14409 34.0107 7.42866L36.3396 8.75776C36.8006 9.02081 36.9753 9.59786 36.7378 10.0724L35.9987 11.5484Z" stroke="#4CAF50"/>
<path d="M6.81244 32.0093C7.96767 31.1564 9.15037 28.9714 8.71857 27.1116C8.19872 24.8727 6.39014 29.9408 9.13742 29.9409C9.71866 29.941 9.48102 31.2417 9.06514 32.0093C8.54528 32.9689 9.93156 30.7899 10.4514 30.7899C10.9865 30.7899 11.0617 32.684 10.4227 32.3891C9.72955 32.0693 12.9101 31.1097 12.0436 30.7899C11.3505 30.7898 11.4953 32.1528 12.0436 32.2292C12.474 32.2891 14.3686 31.7649 14.3686 32.3891" stroke="#4CAF50" stroke-width="0.5" stroke-linecap="round"/>
<path d="M4.48749 5.91089H9.78327M4.48749 8.5461H9.78327M8.5562 14.3508H20.1811M5.06873 17.2531H22.5061M5.06873 20.1555H22.5061M5.06873 23.0578H16.1124" stroke="#4CAF50" stroke-linecap="round"/>
</svg>
