<svg width="35" height="37" viewBox="0 0 35 37" fill="none" xmlns="http://www.w3.org/2000/svg">
<path d="M22.1127 1H1V35.9426H17.0413M22.1127 1V5.83248H26.199M22.1127 1L26.199 5.83248M26.199 5.83248V14.1375" stroke="#4CAF50"/>
<path d="M18.4257 30.1375L28.1133 13.604L31.8995 15.9695L22.2118 32.503L18.3813 34.627L18.4257 30.1375Z" stroke="#4CAF50"/>
<path d="M33.0827 14.1374L29.2106 11.8526L29.8559 10.5199C30.1064 10.0026 30.7317 9.81262 31.2253 10.1039L33.3736 11.3716C33.8308 11.6414 34.0072 12.2281 33.7751 12.7074L33.0827 14.1374Z" stroke="#4CAF50"/>
<path d="M7.64245 18.7064C7.50877 15.1554 10.2618 12.4239 13.6579 12.4239C17.054 12.4239 19.8071 15.2367 19.8071 18.7064C19.8071 22.1761 17.054 24.9889 13.6579 24.9889C13.6579 24.9889 10.9797 25.1255 9.10823 22.5305M7.64245 18.7064L5.97833 17.5646M7.64245 18.7064L9.29723 17.5646" stroke="#4CAF50" stroke-linecap="round" stroke-linejoin="round"/>
<path d="M13.2522 15.4286V18.7064L15.6584 19.6624" stroke="#4CAF50" stroke-linecap="round"/>
</svg>
