<svg width="9" height="11" viewBox="0 0 9 11" fill="none" xmlns="http://www.w3.org/2000/svg">
<path d="M0.900002 11V0.5H4.6275C5.1675 0.5 5.655 0.61 6.09 0.83C6.53 1.05 6.8775 1.3675 7.1325 1.7825C7.3925 2.1925 7.5225 2.685 7.5225 3.26C7.5225 3.54 7.4775 3.815 7.3875 4.085C7.2975 4.355 7.17 4.5925 7.005 4.7975C6.84 5.0025 6.64 5.1475 6.405 5.2325C6.725 5.3125 6.99 5.4575 7.2 5.6675C7.415 5.8725 7.585 6.1125 7.71 6.3875C7.835 6.6625 7.9225 6.9475 7.9725 7.2425C8.0275 7.5375 8.055 7.8175 8.055 8.0825C8.055 8.6425 7.92 9.1425 7.65 9.5825C7.38 10.0225 7.0175 10.37 6.5625 10.625C6.1125 10.875 5.615 11 5.07 11H0.900002ZM2.46 9.65H4.92C5.24 9.65 5.53 9.57 5.79 9.41C6.055 9.25 6.265 9.03 6.42 8.75C6.575 8.465 6.6525 8.145 6.6525 7.79C6.6525 7.48 6.575 7.1875 6.42 6.9125C6.265 6.6325 6.055 6.4075 5.79 6.2375C5.53 6.0675 5.24 5.9825 4.92 5.9825H2.46V9.65ZM2.46 4.655H4.4625C4.8725 4.655 5.225 4.53 5.52 4.28C5.815 4.03 5.9625 3.6875 5.9625 3.2525C5.9625 2.7875 5.815 2.44 5.52 2.21C5.225 1.975 4.8725 1.8575 4.4625 1.8575H2.46V4.655Z" fill="#4CAF50"/>
</svg>
