<svg width="15" height="10" viewBox="0 0 15 10" fill="none" xmlns="http://www.w3.org/2000/svg">
<path d="M13.0167 10H10L11.6667 6.66667H10.3333C9.22876 6.66667 8.33333 5.77124 8.33333 4.66667V2C8.33333 0.895429 9.22876 0 10.3333 0H13C14.1046 0 15 0.895431 15 2V5.5612C15 5.87169 14.9277 6.17791 14.7889 6.45562L13.0167 10ZM4.68333 10H1.5L3.16667 6.66667H2C0.895431 6.66667 0 5.77124 0 4.66667V2C0 0.895429 0.89543 0 2 0H4.66667C5.77124 0 6.66667 0.895431 6.66667 2V5.5612C6.66667 5.87169 6.59438 6.17791 6.45552 6.45562L4.68333 10Z" fill="#4CAF50"/>
</svg>
