<svg width="65" height="67" viewBox="0 0 65 67" fill="none" xmlns="http://www.w3.org/2000/svg">
<path d="M64.5 59.7477V64.0016C64.5 64.83 63.8284 65.5016 63 65.5016H2C1.17157 65.5016 0.5 64.83 0.5 64.0016V59.7476C0.5 58.9192 1.17157 58.2477 2 58.2477H19.1578C19.6135 58.2477 20.0444 58.4548 20.3291 58.8106L21.1916 59.8888C21.666 60.4818 22.3843 60.827 23.1438 60.827H39.7127C40.5284 60.827 41.2929 60.429 41.7607 59.7607L42.372 58.8875C42.6527 58.4865 43.1114 58.2477 43.6008 58.2477H63C63.8284 58.2477 64.5 58.9192 64.5 59.7477Z" fill="#4CAF50" stroke="#4CAF50"/>
<path d="M3.09528 61.8745H19.0873M44.3651 61.8745H60.8731" stroke="white" stroke-linecap="round"/>
<path d="M4.12695 57.7476V20.0889H13.4127M13.4127 23.1841H7.22219V55.6841H57.7777V23.1841H51.5873M51.5873 20.0889H60.873V57.7476" stroke="#4CAF50" stroke-linecap="square"/>
<path d="M14.4444 49.4948V1.00272H45.1829L50.5555 7.70906V49.4948H14.4444Z" fill="#4CAF50"/>
<path d="M45.1829 1.00272H14.4444V49.4948H50.5555V7.70906M45.1829 1.00272V7.70906H50.5555M45.1829 1.00272L50.5555 7.70906" stroke="#4CAF50"/>
<path d="M44.3903 7.70634V1L49.7629 7.70634H44.3903Z" fill="white"/>
<path d="M28.8889 7.70792H36.1111M19.6031 13.8984H45.9127M19.6031 20.0889H45.9127M19.6031 26.2793H45.9127M19.6031 32.9857H45.9127M19.6031 39.1762H45.9127" stroke="white" stroke-linecap="round"/>
</svg>
