<svg width="18" height="11" viewBox="0 0 18 11" fill="none" xmlns="http://www.w3.org/2000/svg">
<path d="M7.20749 0.499993H8.76749V11H7.20749V6.15499H2.45999V11H0.899994V0.499993H2.45999V4.59499H7.20749V0.499993Z" fill="#4CAF50"/>
<path d="M10.268 11V9.61249C10.623 9.31749 11.0305 8.97499 11.4905 8.58499C11.9505 8.18999 12.418 7.77249 12.893 7.33249C13.368 6.88749 13.8055 6.44499 14.2055 6.00499C14.6055 5.55999 14.928 5.13999 15.173 4.74499C15.423 4.34499 15.548 3.99749 15.548 3.70249C15.548 3.36749 15.4655 3.06249 15.3005 2.78749C15.1405 2.50749 14.923 2.28499 14.648 2.11999C14.373 1.94999 14.068 1.86499 13.733 1.86499C13.398 1.86499 13.0905 1.94999 12.8105 2.11999C12.5355 2.28499 12.313 2.50749 12.143 2.78749C11.978 3.06249 11.8955 3.36749 11.8955 3.70249H10.3355C10.3355 3.06749 10.4905 2.49499 10.8005 1.98499C11.1155 1.46999 11.528 1.06249 12.038 0.762493C12.553 0.457493 13.118 0.304993 13.733 0.304993C14.353 0.304993 14.918 0.457493 15.428 0.762493C15.938 1.06749 16.3455 1.47749 16.6505 1.99249C16.9555 2.50249 17.108 3.07249 17.108 3.70249C17.108 4.05249 17.0355 4.41249 16.8905 4.78249C16.7455 5.15249 16.543 5.52999 16.283 5.91499C16.028 6.29999 15.7305 6.68999 15.3905 7.08499C15.0505 7.47999 14.6855 7.87499 14.2955 8.26999C13.9055 8.66499 13.508 9.05499 13.103 9.43999H17.198V11H10.268Z" fill="#4CAF50"/>
</svg>
