<svg width="16" height="12" viewBox="0 0 16 12" fill="none" xmlns="http://www.w3.org/2000/svg">
<path d="M12.5 1.00107H14H15.5C15.5 1.00107 14.8775 1.00373 14 1.00378C13.5504 1.0038 13.0339 1.00313 12.5 1.00107V6.50107C12.5 6.50107 9.07891 6.88828 8 5.5011C6.92109 4.11392 7.5 2.00112 8.5 1.50109C9.5 1.00107 10.8408 0.994658 12.5 1.00107Z" fill="#4CAF50"/>
<path d="M1 9.50107V3.00107L5 6.00107L1 9.50107Z" fill="#4CAF50"/>
<path d="M12.5 12.0011V6.50107M12.5 1.00107H14M12.5 1.00107V6.50107M12.5 1.00107C14.0761 1.00716 15.5 1.00107 15.5 1.00107H14M12.5 1.00107C10.8408 0.994658 9.5 1.00107 8.5 1.50109C7.5 2.00112 6.92109 4.11392 8 5.5011C9.07891 6.88828 12.5 6.50107 12.5 6.50107M14 1.00107V12.0011M1 3.00107V9.50107L5 6.00107L1 3.00107Z" stroke="#4CAF50"/>
</svg>
