<svg width="11" height="13" viewBox="0 0 11 13" fill="none" xmlns="http://www.w3.org/2000/svg">
<path d="M5.1075 11.195C4.2675 11.195 3.53 10.99 2.895 10.58C2.265 10.17 1.775 9.62 1.425 8.93C1.075 8.235 0.9 7.465 0.9 6.62V0.5H2.73V6.62C2.73 7.12 2.8225 7.58 3.0075 8C3.1975 8.415 3.4675 8.7475 3.8175 8.9975C4.1725 9.2425 4.6025 9.365 5.1075 9.365C5.6175 9.365 6.0475 9.2425 6.3975 8.9975C6.7475 8.7475 7.0125 8.415 7.1925 8C7.3775 7.58 7.47 7.12 7.47 6.62V0.5H9.3V6.62C9.3 7.255 9.2 7.85 9 8.405C8.8 8.955 8.515 9.44 8.145 9.86C7.775 10.28 7.3325 10.6075 6.8175 10.8425C6.3075 11.0775 5.7375 11.195 5.1075 11.195Z" fill="#4CAF50"/>
<path d="M0 11.9375H10.2V12.3125H0V11.9375Z" fill="#4CAF50"/>
</svg>
