<svg width="15" height="12" viewBox="0 0 15 12" fill="none" xmlns="http://www.w3.org/2000/svg">
<path d="M0.450012 12L4.29751 6.71999L0.495012 1.49999H2.42251L5.25751 5.39999L8.10001 1.49999H10.0275L6.23251 6.71999L10.0725 12H8.13751L5.25751 8.05499L2.39251 12H0.450012Z" fill="#4CAF50"/>
<path d="M11.2376 5.86499V4.97999C11.4426 4.83999 11.6701 4.68499 11.9201 4.51499C12.1751 4.34499 12.4251 4.16249 12.6701 3.96749C12.9151 3.77249 13.1326 3.56499 13.3226 3.34499C13.5176 3.12499 13.6576 2.89499 13.7426 2.65499C13.7426 2.44499 13.6701 2.26999 13.5251 2.12999C13.3801 1.98999 13.2026 1.91999 12.9926 1.91999C12.7826 1.91999 12.6001 1.98999 12.4451 2.12999C12.2951 2.26999 12.2201 2.44499 12.2201 2.65499H11.2376C11.2376 2.33499 11.3151 2.04999 11.4701 1.79999C11.6301 1.54499 11.8426 1.34749 12.1076 1.20749C12.3776 1.06249 12.6726 0.98999 12.9926 0.98999C13.4726 0.98999 13.8801 1.14749 14.2151 1.46249C14.5551 1.77749 14.7251 2.17499 14.7251 2.65499C14.7251 2.85999 14.6726 3.06499 14.5676 3.26999C14.4626 3.46999 14.3251 3.66499 14.1551 3.85499C13.9851 4.04499 13.7976 4.22749 13.5926 4.40249C13.3926 4.57249 13.1976 4.73249 13.0076 4.88249H14.6726V5.86499H11.2376Z" fill="#4CAF50"/>
</svg>
