<svg width="15" height="11" viewBox="0 0 15 11" fill="none" xmlns="http://www.w3.org/2000/svg">
<path d="M0.450012 11L4.29751 5.72L0.495012 0.5H2.42251L5.25751 4.4L8.10001 0.5H10.0275L6.23251 5.72L10.0725 11H8.13751L5.25751 7.055L2.39251 11H0.450012Z" fill="#4CAF50"/>
<path d="M11.2376 11V10.115C11.4426 9.975 11.6701 9.82 11.9201 9.65C12.1751 9.48 12.4251 9.2975 12.6701 9.1025C12.9151 8.9025 13.1326 8.6925 13.3226 8.4725C13.5176 8.2525 13.6576 8.0225 13.7426 7.7825C13.7426 7.5725 13.6701 7.4 13.5251 7.265C13.3801 7.125 13.2026 7.055 12.9926 7.055C12.7826 7.055 12.6001 7.125 12.4451 7.265C12.2951 7.4 12.2201 7.5725 12.2201 7.7825H11.2376C11.2376 7.4625 11.3151 7.1725 11.4701 6.9125C11.6301 6.6525 11.8426 6.4475 12.1076 6.2975C12.3776 6.1475 12.6726 6.0725 12.9926 6.0725C13.3126 6.0725 13.6026 6.1475 13.8626 6.2975C14.1276 6.4475 14.3376 6.6525 14.4926 6.9125C14.6476 7.1725 14.7251 7.4625 14.7251 7.7825C14.7251 7.9875 14.6726 8.1925 14.5676 8.3975C14.4626 8.5975 14.3251 8.7925 14.1551 8.9825C13.9851 9.1725 13.7976 9.355 13.5926 9.53C13.3926 9.705 13.1976 9.8675 13.0076 10.0175H14.6726V11H11.2376Z" fill="#4CAF50"/>
</svg>
